<svg width="25" height="24" viewBox="0 0 25 24" fill="none" xmlns="http://www.w3.org/2000/svg">
<path d="M8.13035 8.76V9.504C8.13035 10.584 7.41835 11.536 6.33035 11.928L6.67435 12.464C7.89035 12 8.67435 10.872 8.67435 9.504V8.76H8.13035ZM8.25035 8.76V9.552C8.25035 10.808 9.03435 11.888 10.2103 12.32L10.5463 11.792C9.50635 11.432 8.78635 10.528 8.78635 9.552V8.76H8.25035ZM11.2983 8.392V12.768H11.9623V8.392H11.2983ZM11.7783 10.296V10.856H13.0343V10.296H11.7783ZM7.26635 13.128V13.68H11.2983V15.624H11.9623V13.128H7.26635ZM18.2097 8.392V15.624H18.8497V8.392H18.2097ZM15.5777 10.984V11.536H16.9617V10.984H15.5777ZM16.7617 8.56V15.256H17.3857V8.56H16.7617ZM14.1857 9.512V10.432C14.1857 11.76 13.6257 13.08 12.6177 13.688L13.0257 14.184C14.0897 13.512 14.6977 12.016 14.6977 10.432V9.512H14.1857ZM14.3217 9.512V10.432C14.3217 11.944 14.9057 13.368 15.9617 14.008L16.3697 13.52C15.3777 12.944 14.8337 11.688 14.8337 10.432V9.512H14.3217ZM12.8177 9.232V9.784H16.1217V9.232H12.8177Z" fill="white"/>
<rect x="1.31372" y="0.5" width="23" height="23" rx="11.5" stroke="white"/>
</svg>
