<svg width="25" height="24" viewBox="0 0 25 24" fill="none" xmlns="http://www.w3.org/2000/svg">
<path d="M11.6343 8.392V13.776H12.2983V8.392H11.6343ZM6.56235 8.976V9.52H10.3703V8.976H6.56235ZM6.44235 12.688C7.61835 12.688 9.24235 12.664 10.6343 12.44L10.5943 11.944C9.24235 12.104 7.55435 12.12 6.37035 12.12L6.44235 12.688ZM7.28235 9.44V12.216H7.92235V9.44H7.28235ZM9.01035 9.44V12.216H9.65035V9.44H9.01035ZM10.4343 9.76V10.304H11.9863V9.76H10.4343ZM10.4343 11.144V11.688H11.9863V11.144H10.4343ZM7.67435 14.92V15.464H12.4903V14.92H7.67435ZM7.67435 13.336V15.264H8.33835V13.336H7.67435ZM14.6337 9.016V9.568C14.6337 10.552 13.8897 11.448 12.8017 11.8L13.1377 12.328C14.3537 11.912 15.1857 10.84 15.1857 9.568V9.016H14.6337ZM14.7617 9.016V9.568C14.7617 10.792 15.6097 11.808 16.8097 12.2L17.1377 11.68C16.0737 11.344 15.3137 10.504 15.3137 9.568V9.016H14.7617ZM12.9857 8.864V9.4H16.9457V8.864H12.9857ZM17.9697 8.392V12.304H18.6417V8.392H17.9697ZM13.9777 12.664V15.528H18.6417V12.664H17.9857V13.52H14.6337V12.664H13.9777ZM14.6337 14.056H17.9857V14.984H14.6337V14.056Z" fill="white"/>
<rect x="1.31372" y="0.5" width="23" height="23" rx="11.5" stroke="white"/>
</svg>
