<svg width="25" height="24" viewBox="0 0 25 24" fill="none" xmlns="http://www.w3.org/2000/svg">
<rect x="1.16663" y="0.5" width="23" height="23" rx="11.5" fill="white"/>
<path d="M11.4713 8.392V15.624H12.1353V8.392H11.4713ZM6.38325 9.168V9.712H10.4793V9.168H6.38325ZM6.27125 13.84C7.59125 13.832 9.32725 13.808 10.8873 13.56L10.8473 13.072C9.31125 13.256 7.53525 13.272 6.19125 13.272L6.27125 13.84ZM7.18325 9.576V13.424H7.82325V9.576H7.18325ZM9.03125 9.576V13.424H9.67925V9.576H9.03125ZM13.3906 11.856V12.4H18.3586V11.856H13.3906ZM12.5666 14.096V14.648H19.1186V14.096H12.5666ZM13.3906 9.056V12.096H14.0546V9.608H18.2866V9.056H13.3906Z" fill="#999999"/>
<rect x="1.16663" y="0.5" width="23" height="23" rx="11.5" stroke="#999999"/>
</svg>
