<svg width="24" height="24" viewBox="0 0 24 24" fill="none" xmlns="http://www.w3.org/2000/svg">
<path d="M7.58863 12.472V15.4H8.26063V12.472H7.58863ZM10.8046 8.392V15.632H11.4606V8.392H10.8046ZM5.58863 12.888C6.98863 12.896 8.71663 12.872 10.3406 12.632L10.3006 12.136C8.71663 12.32 6.93263 12.328 5.50063 12.328L5.58863 12.888ZM6.18063 10.872V11.416H9.75663V10.872H6.18063ZM6.18063 8.792V11.176H6.84463V9.336H9.66863V8.792H6.18063ZM11.9 14.184V14.736H18.452V14.184H11.9ZM14.828 12.632V14.416H15.492V12.632H14.828ZM12.692 8.928V9.464H16.988V10.584H12.716V12.568H13.372V11.12H17.644V8.928H12.692ZM12.716 12.288V12.832H17.812V12.288H12.716Z" fill="#999999"/>
<rect x="0.5" y="0.5" width="23" height="23" rx="11.5" stroke="#999999"/>
</svg>
