<svg width="24" height="24" viewBox="0 0 24 24" fill="none" xmlns="http://www.w3.org/2000/svg">
<path d="M5.79663 9.224V13.688H8.55663V9.224H5.79663ZM7.93263 9.752V13.16H6.42063V9.752H7.93263ZM11.0446 8.392V15.624H11.6846V8.392H11.0446ZM8.22063 11.112V11.664H9.88463V11.112H8.22063ZM9.61263 8.544V15.264H10.2446V8.544H9.61263ZM12.724 10.832V11.376H17.668V10.832H12.724ZM12.724 8.76V11.088H13.388V8.76H12.724ZM11.9 12.408V12.96H18.436V12.408H11.9ZM13.58 12.616V15.624H14.244V12.616H13.58ZM16.084 12.616V15.624H16.74V12.616H16.084Z" fill="#999999"/>
<rect x="0.5" y="0.5" width="23" height="23" rx="11.5" stroke="#999999"/>
</svg>
