<svg width="25" height="24" viewBox="0 0 25 24" fill="none" xmlns="http://www.w3.org/2000/svg">
<rect x="0.833496" y="0.5" width="23" height="23" rx="11.5" fill="white"/>
<path d="M7.55743 8.392V15.624H8.19743V8.392H7.55743ZM6.34143 11.336V11.88H7.73343V11.336H6.34143ZM5.91743 8.552V15.256H6.54143V8.552H5.91743ZM2.41343 9.264V13.44H3.07743V9.264H2.41343ZM2.41343 13.176V13.752H2.87743C3.65343 13.752 4.48543 13.712 5.46943 13.52L5.39743 12.944C4.45343 13.128 3.62143 13.176 2.87743 13.176H2.41343ZM13.5348 10.264V10.816H15.1668V10.264H13.5348ZM14.9588 8.392V12.704H15.6228V8.392H14.9588ZM13.2468 12.92C11.7508 12.92 10.8308 13.424 10.8308 14.272C10.8308 15.128 11.7508 15.616 13.2468 15.616C14.7348 15.616 15.6548 15.128 15.6548 14.272C15.6548 13.424 14.7348 12.92 13.2468 12.92ZM13.2468 13.44C14.3348 13.44 14.9988 13.744 14.9988 14.272C14.9988 14.792 14.3348 15.096 13.2468 15.096C12.1588 15.096 11.4948 14.792 11.4948 14.272C11.4948 13.744 12.1588 13.44 13.2468 13.44ZM11.5188 9.12V9.704C11.5188 10.744 10.7748 11.712 9.70281 12.104L10.0468 12.632C11.2468 12.184 12.0628 11.04 12.0628 9.704V9.12H11.5188ZM11.6468 9.12V9.704C11.6468 10.92 12.4228 12.008 13.5988 12.432L13.9348 11.904C12.8868 11.536 12.1828 10.64 12.1828 9.704V9.12H11.6468ZM9.90281 8.92V9.464H13.7668V8.92H9.90281ZM16.0382 14.152V14.704H22.5902V14.152H16.0382ZM18.9662 12.424V14.312H19.6302V12.424H18.9662ZM16.8062 8.904V12.6H21.8062V8.904H21.1502V10.192H17.4622V8.904H16.8062ZM17.4622 10.728H21.1502V12.056H17.4622V10.728Z" fill="#999999"/>
<rect x="0.833496" y="0.5" width="23" height="23" rx="11.5" stroke="#999999"/>
</svg>
