<svg width="24" height="24" viewBox="0 0 24 24" fill="none" xmlns="http://www.w3.org/2000/svg">
<rect x="0.5" y="0.5" width="23" height="23" rx="11.5" fill="white"/>
<path d="M8.43663 9.104V9.408C8.43663 10.36 7.19662 11.192 5.92463 11.376L6.18063 11.904C7.63663 11.656 9.01263 10.704 9.01263 9.408V9.104H8.43663ZM8.60463 9.104V9.408C8.60463 10.704 9.97263 11.656 11.4366 11.904L11.6846 11.376C10.4206 11.192 9.17263 10.36 9.17263 9.408V9.104H8.60463ZM8.46063 12.864V15.624H9.11663V12.864H8.46063ZM5.54063 12.512V13.056H12.0766V12.512H5.54063ZM6.14863 8.84V9.376H11.4446V8.84H6.14863ZM11.892 12.088V12.632H18.444V12.088H11.892ZM14.884 12.424V14.088H15.548V12.424H14.884ZM12.732 8.728V11.272H17.596V8.728H12.732ZM16.94 9.264V10.736H13.38V9.264H16.94ZM12.724 14.92V15.464H17.716V14.92H12.724ZM12.724 13.392V15.112H13.38V13.392H12.724Z" fill="#999999"/>
<rect x="0.5" y="0.5" width="23" height="23" rx="11.5" stroke="#999999"/>
</svg>
